<svg id="Layer_1" data-name="Layer 1" xmlns="http://www.w3.org/2000/svg" viewBox="0 0 32 32"><defs><style>.cls-1{fill:gold;}</style></defs><title>pinterest-logo-hover</title><g id="Flat_copy" data-name="Flat copy"><path class="cls-1" d="M16,0A16,16,0,1,0,32,16,16,16,0,0,0,16,0Z" transform="translate(0 -0.02)"/><path d="M24,12.48c0,4.66-2.59,8.14-6.41,8.14a3.4,3.4,0,0,1-2.9-1.48s-.69,2.74-.84,3.26a12.67,12.67,0,0,1-2.14,3.89.16.16,0,0,1-.28-.07,13.31,13.31,0,0,1,0-4.51L13,15.24a4.56,4.56,0,0,1-.38-1.88c0-1.76,1-3.07,2.29-3.07a1.59,1.59,0,0,1,1.6,1.78,25.46,25.46,0,0,1-1,4.21,1.84,1.84,0,0,0,1.87,2.29c2.25,0,3.76-2.89,3.76-6.31,0-2.6-1.75-4.55-4.94-4.55a5.62,5.62,0,0,0-5.85,5.69,3.42,3.42,0,0,0,.78,2.33.58.58,0,0,1,.17.66c-.06.22-.19.74-.24,1a.41.41,0,0,1-.59.3C8.78,17,8,15.14,8,13.09c0-3.37,2.85-7.42,8.49-7.42C21,5.68,24,9,24,12.48Z" transform="translate(0 -0.02)"/></g></svg>